<svg width="80" height="80" viewBox="0 0 80 80" fill="none" xmlns="http://www.w3.org/2000/svg">
<path d="M39.8813 0.641235L2.8457 13.675L8.69758 62.1981L39.9207 79.3587L71.3045 61.9662L77.1544 13.4444L39.8813 0.641235Z" fill="#B3B3B3"/>
<path d="M73.4599 16.2487L39.7949 4.76807V75.2587L68.008 59.6443L73.4599 16.2487Z" fill="#A6120D"/>
<path d="M7.00073 16.4556L12.017 59.8518L39.7945 75.2587V4.76685L7.00073 16.4556Z" fill="#DD1B16"/>
<path d="M49.0619 42.2938L39.795 46.6275H30.0275L25.4356 58.1113L16.8962 58.27L39.795 7.32751L49.0619 42.2938ZM48.1656 40.1119L39.8562 23.6613L33.04 39.8288H39.7944L48.1656 40.1119Z" fill="#F2F2F2"/>
<path d="M39.7944 7.32751L39.8557 23.6613L47.5901 39.8413H39.8113L39.7944 46.6169L50.5501 46.6275L55.5763 58.2713L63.7476 58.4225L39.7944 7.32751Z" fill="#B3B3B3"/>
</svg>
