<svg width="80" height="80" viewBox="0 0 80 80" fill="none" xmlns="http://www.w3.org/2000/svg">
<path d="M61.25 0H18.75C8.39466 0 0 8.39466 0 18.75V61.25C0 71.6053 8.39466 80 18.75 80H61.25C71.6053 80 80 71.6053 80 61.25V18.75C80 8.39466 71.6053 0 61.25 0Z" fill="#2396ED"/>
<path d="M44.1209 38.1634H50.595V32.3059H44.1209V38.1634ZM36.4141 38.1634H42.8878V32.3059H36.4141V38.1634ZM28.8609 38.1634H35.335V32.3059H28.8609V38.1634ZM21.3078 38.1634H27.6281V32.3059H21.3081L21.3078 38.1634ZM13.6009 38.1634H20.075V32.3059H13.6009V38.1634ZM21.3081 31.0728H27.6278V25.2156H21.3081V31.0728ZM28.8612 31.0728H35.335V25.2156H28.8609L28.8612 31.0728ZM36.4141 31.0728H42.8878V25.2156H36.4141V31.0728ZM36.4141 23.9822H42.8878V18.125H36.4141V23.9822ZM71.25 35.5434C71.25 35.5434 68.4753 32.9228 62.7722 33.8478C62.1556 29.3775 57.3772 26.7572 57.3772 26.7572C57.3772 26.7572 52.9072 32.1522 56.1441 38.1637C55.2194 38.6262 53.6778 39.2428 51.3656 39.2428H8.97687C8.20593 42.1716 8.20594 61.5931 29.4775 61.5931C44.7375 61.5931 56.1441 54.5028 61.5391 41.5547C69.5544 42.1713 71.25 35.5434 71.25 35.5434Z" fill="white"/>
</svg>
