<svg width="80" height="80" viewBox="0 0 80 80" fill="none" xmlns="http://www.w3.org/2000/svg">
<path d="M61.25 0H18.75C8.39466 0 0 8.39466 0 18.75V61.25C0 71.6053 8.39466 80 18.75 80H61.25C71.6053 80 80 71.6053 80 61.25V18.75C80 8.39466 71.6053 0 61.25 0Z" fill="#00B4E0"/>
<path d="M12.6562 35.3857C12.5312 35.3857 12.5 35.3232 12.5625 35.2295L13.2188 34.3857C13.2812 34.292 13.4375 34.2295 13.5625 34.2295H24.7188C24.8438 34.2295 24.875 34.3232 24.8125 34.417L24.2812 35.2295C24.2187 35.3232 24.0625 35.417 23.9688 35.417L12.6562 35.3857ZM7.9375 38.2607C7.8125 38.2607 7.78125 38.1982 7.84375 38.1045L8.5 37.2607C8.5625 37.167 8.71875 37.1045 8.84375 37.1045H23.0938C23.2188 37.1045 23.2813 37.1982 23.25 37.292L23 38.042C22.9687 38.167 22.8437 38.2295 22.7187 38.2295L7.9375 38.2607ZM15.5 41.1357C15.375 41.1357 15.3437 41.042 15.4062 40.9482L15.8438 40.167C15.9062 40.0732 16.0312 39.9795 16.1562 39.9795H22.4062C22.5312 39.9795 22.5938 40.0732 22.5938 40.1982L22.5312 40.9482C22.5312 41.0732 22.4063 41.167 22.3125 41.167L15.5 41.1357ZM47.9375 34.8232C45.9687 35.3232 44.625 35.6982 42.6875 36.1982C42.2188 36.3232 42.1875 36.3545 41.7812 35.8857C41.3125 35.3545 40.9688 35.0107 40.3125 34.6982C38.3438 33.7295 36.4375 34.0107 34.6562 35.167C32.5312 36.542 31.4375 38.5732 31.4688 41.1045C31.5 43.6045 33.2187 45.667 35.6875 46.0107C37.8125 46.292 39.5938 45.542 41 43.9482C41.2812 43.6045 41.5312 43.2295 41.8438 42.792H35.8125C35.1562 42.792 35 42.3857 35.2188 41.8545C35.625 40.8857 36.375 39.2607 36.8125 38.4482C36.9063 38.2607 37.125 37.9482 37.5938 37.9482H48.9688C48.9062 38.792 48.9063 39.6357 48.7812 40.4795C48.4375 42.7295 47.5938 44.792 46.2188 46.6045C43.9688 49.5732 41.0312 51.417 37.3125 51.917C34.25 52.3232 31.4062 51.7295 28.9062 49.8545C26.5938 48.1045 25.2813 45.792 24.9375 42.917C24.5313 39.5107 25.5313 36.4482 27.5938 33.7607C29.8125 30.8545 32.75 29.0107 36.3438 28.3545C39.2812 27.8232 42.0938 28.167 44.625 29.8857C46.2812 30.9795 47.4688 32.4795 48.25 34.292C48.4375 34.5732 48.3125 34.7295 47.9375 34.8232Z" fill="white"/>
<path d="M58.2814 52.1044C55.4377 52.0419 52.8439 51.2294 50.6564 49.3544C48.8127 47.7607 47.6564 45.7294 47.2814 43.3232C46.7189 39.7919 47.6877 36.6669 49.8127 33.8857C52.0939 30.8857 54.8439 29.3232 58.5627 28.6669C61.7502 28.1044 64.7502 28.4169 67.4689 30.2607C69.9377 31.9482 71.4689 34.2294 71.8752 37.2294C72.4064 41.4482 71.1877 44.8857 68.2814 47.8232C66.2189 49.9169 63.6877 51.2294 60.7814 51.8232C59.9377 51.9794 59.0939 52.0107 58.2814 52.1044ZM65.7189 39.4794C65.6877 39.0732 65.6877 38.7607 65.6252 38.4482C65.0627 35.3544 62.2189 33.6044 59.2502 34.2919C56.3439 34.9482 54.4689 36.7919 53.7814 39.7294C53.2189 42.1669 54.4064 44.6357 56.6564 45.6357C58.3752 46.3857 60.0939 46.2919 61.7502 45.4482C64.2189 44.1669 65.5627 42.1669 65.7189 39.4794Z" fill="white"/>
</svg>
