<svg width="80" height="80" viewBox="0 0 80 80" fill="none" xmlns="http://www.w3.org/2000/svg">
<path fill-rule="evenodd" clip-rule="evenodd" d="M54.5369 62.5869C54.6425 62.3838 54.7437 62.2044 54.83 62.0188C54.8844 61.9 54.9681 61.8763 55.0862 61.8794C55.7944 61.8994 56.5025 61.9213 57.2112 61.9282C57.8131 61.9344 58.4162 61.9232 59.0187 61.9163C59.6975 61.9082 60.3762 61.8725 61.0544 61.8919C61.9575 61.9182 62.8375 62.095 63.6544 62.4969C64.63 62.9775 65.3681 63.7094 65.8712 64.6738C66.1877 65.2852 66.3851 65.9512 66.4531 66.6363C66.5606 67.6413 66.49 68.6232 66.1712 69.5844C65.7762 70.7757 65.0262 71.6875 63.9844 72.3707C63.1825 72.8963 62.3031 73.2069 61.3606 73.3844C60.3631 73.5725 59.3625 73.5119 58.3619 73.515C57.2644 73.5194 56.1675 73.4957 55.07 73.4832C54.8781 73.4813 54.8506 73.445 54.9012 73.2619L54.9481 73.0932C55.055 72.7569 55.1125 72.7419 55.4537 72.6857C55.6958 72.6481 55.9272 72.5602 56.1331 72.4275C56.2481 72.3513 56.2956 72.1525 56.3406 71.9994C56.3794 71.8657 56.3812 71.7188 56.3825 71.5775C56.3981 69.4369 56.4144 67.2969 56.4231 65.1575C56.4255 64.6164 56.412 64.0753 56.3825 63.535C56.3612 63.1569 56.1594 62.8982 55.7094 62.8088C55.3594 62.7394 55.0069 62.6857 54.655 62.6238L54.5369 62.5869ZM64.5844 67.77C64.5369 67.3438 64.5137 66.9138 64.4375 66.4938C64.255 65.4857 63.8137 64.6075 63.0387 63.9194C61.7856 62.8075 60.2769 62.6363 58.6956 62.7688C58.3356 62.7988 58.2581 62.9219 58.2525 63.2919C58.2437 63.8169 58.235 64.3419 58.2344 64.8669C58.2319 66.5319 58.2319 68.1969 58.2344 69.8619C58.2344 70.3361 58.2408 70.8094 58.2537 71.2819C58.2687 71.7657 58.4444 72.175 58.9181 72.3625C59.665 72.6582 60.4506 72.6932 61.2344 72.5725C62.4862 72.3807 63.3619 71.6513 63.9494 70.5582C64.4144 69.6907 64.5456 68.7438 64.5844 67.77ZM67.6275 73.4394C67.6125 73.18 67.7187 72.9657 67.85 72.7688C67.8856 72.7157 68.0081 72.7182 68.0925 72.7013L68.8087 72.5594C69.0619 72.5057 69.195 72.3357 69.2306 72.0875C69.2544 71.9238 69.2769 71.7582 69.2787 71.5925C69.2957 70.282 69.308 68.9713 69.3156 67.6607C69.3219 66.3482 69.3169 65.0357 69.3169 63.7232L69.3112 63.4725C69.2856 63.0507 69.0819 62.8319 68.6631 62.77L67.755 62.6319C67.6431 62.6169 67.6025 62.5632 67.6431 62.4638C67.7131 62.2944 67.78 62.1188 67.8787 61.9663C67.9156 61.91 68.04 61.8882 68.1237 61.89C68.5575 61.8963 68.9912 61.9288 69.425 61.9282L73.2006 61.9057C73.9281 61.905 74.6306 62.0319 75.2831 62.38C76.0012 62.7625 76.4031 63.3544 76.5181 64.1607C76.6381 65.0075 76.3812 65.7213 75.7625 66.2882C75.5081 66.5219 75.1787 66.6744 74.8837 66.8644L74.7875 66.9244C75.0612 67.025 75.3219 67.1119 75.5756 67.2157C76.3181 67.52 76.9087 67.9957 77.2212 68.755C77.4681 69.3544 77.4681 69.9794 77.3219 70.6007C77.0944 71.5732 76.4537 72.22 75.6206 72.7094C74.8387 73.1688 73.9925 73.4363 73.0912 73.4813C72.26 73.5232 71.425 73.5075 70.5919 73.5169L70.1094 73.5194C69.3064 73.501 68.5035 73.481 67.7006 73.4594L67.6275 73.4394ZM71.0881 69.6338H71.0962C71.0962 70.045 71.0906 70.4563 71.0981 70.8675C71.1031 71.1338 71.0937 71.4075 71.1512 71.6638C71.2375 72.0469 71.4125 72.3925 71.8425 72.5025C72.4174 72.6531 73.0178 72.6795 73.6037 72.58C74.3394 72.4519 74.9262 72.0832 75.2481 71.3825C75.4869 70.8619 75.5225 70.31 75.4406 69.7463C75.3319 69.0038 74.9375 68.465 74.2819 68.1119C73.8519 67.88 73.3931 67.7382 72.9044 67.7194C72.3569 67.6988 71.8087 67.6975 71.2612 67.6807C71.1075 67.6763 71.0862 67.7544 71.0869 67.8807C71.09 68.4644 71.0881 69.0488 71.0881 69.6338ZM72.2537 66.8369C72.5531 66.8219 72.8919 66.8175 73.2287 66.7838C73.8737 66.7194 74.3281 66.395 74.565 65.7782C74.6856 65.465 74.6806 65.1425 74.6837 64.8169C74.6931 63.9688 74.1981 63.2738 73.3925 62.9863C72.7706 62.7644 72.1294 62.7607 71.4844 62.7782C71.2231 62.785 71.1062 62.8994 71.1025 63.1625L71.0637 66.5932C71.0619 66.7294 71.1206 66.7882 71.2531 66.7925L72.2537 66.8369Z" fill="#94795D"/>
<path fill-rule="evenodd" clip-rule="evenodd" d="M6.58943 72.78L6.5438 73.37C6.1188 73.37 5.72693 73.3669 5.33505 73.3713C4.59693 73.3788 3.8588 73.3907 3.12005 73.4013L3.0488 73.4057C2.94318 73.3932 2.7513 73.3932 2.7463 73.3619C2.71505 73.1863 2.72505 73.0019 2.73318 72.82C2.7338 72.7994 2.80568 72.7732 2.84755 72.7632L3.42193 72.635C3.78005 72.5419 3.9063 72.3875 3.92318 72.0175C3.94255 71.6007 3.96193 71.1832 3.9638 70.7663C3.96943 69.74 3.96318 68.715 3.96755 67.6888C3.96818 67.4488 3.88505 67.27 3.6613 67.1725C3.39542 67.0546 3.12767 66.9408 2.85818 66.8313C2.73068 66.78 2.56505 66.7519 2.58005 66.5807C2.59505 66.4063 2.75568 66.3607 2.90693 66.3263C3.53318 66.1832 4.16005 66.0438 4.78443 65.8913C4.98568 65.8419 5.17818 65.7588 5.4188 65.675C5.4313 65.805 5.45443 65.9288 5.45193 66.0525L5.41505 66.6407C5.41443 66.7069 5.4488 66.7957 5.49818 66.8325C5.52818 66.8557 5.6288 66.8138 5.6788 66.775C6.21255 66.3688 6.77755 66.0182 7.42193 65.8138C8.42005 65.4969 9.27693 65.7907 9.87693 66.6513C10.0882 66.9544 10.0888 66.9544 10.3819 66.7425C10.8851 66.3769 11.4113 66.0544 12.0001 65.8419C13.2926 65.375 14.5344 65.9675 14.9838 67.2694C15.1476 67.7419 15.2101 68.23 15.2088 68.7288L15.1969 72.04C15.1963 72.3132 15.2869 72.4688 15.5469 72.5538C15.8388 72.6494 16.1413 72.715 16.4701 72.8013L16.3938 73.3707C16.0201 73.3707 15.6763 73.3682 15.3326 73.3713C14.4926 73.3788 13.6526 73.3832 12.8132 73.4025C12.6669 73.4063 12.6288 73.37 12.6213 73.2332C12.5969 72.795 12.5932 72.7957 13.0057 72.6969L13.1444 72.6613C13.5476 72.5513 13.6819 72.4275 13.6851 72.0188C13.6944 70.845 13.7188 69.6682 13.6594 68.4969C13.5976 67.2819 12.6332 66.635 11.4557 66.9463C11.0757 67.0504 10.7178 67.2228 10.3994 67.455C10.2901 67.5332 10.2694 67.6232 10.2782 67.76C10.3119 68.2775 10.3313 68.7955 10.3363 69.3138C10.3438 70.2207 10.3326 71.1275 10.3363 72.035C10.3376 72.4025 10.4632 72.5432 10.8263 72.6282L11.3657 72.7525L11.4657 72.775C11.4732 72.9475 11.4801 73.12 11.4719 73.2925C11.4669 73.4007 11.3832 73.41 11.2894 73.4082C10.7651 73.395 10.2401 73.3775 9.71568 73.3788C9.07755 73.38 8.44005 73.3982 7.80255 73.4094H7.65255C7.65255 73.2263 7.6438 73.0513 7.6588 72.8769C7.66193 72.835 7.73568 72.7763 7.7863 72.7632L8.41505 72.63C8.68193 72.5644 8.80943 72.4275 8.82443 72.1563C8.89568 70.9 8.94693 69.6432 8.8288 68.3875C8.79996 68.1396 8.73115 67.8979 8.62505 67.6719C8.30318 66.9607 7.5788 66.6638 6.74318 66.8775C6.3463 66.9788 5.98818 67.1607 5.64943 67.39C5.57577 67.4358 5.51527 67.4998 5.47385 67.576C5.43243 67.6521 5.41152 67.7377 5.41318 67.8244C5.41401 69.0778 5.41672 70.3307 5.4213 71.5832L5.42818 72.0663C5.43568 72.4032 5.5788 72.5807 5.91318 72.6532C6.12818 72.7019 6.34568 72.735 6.58943 72.78Z" fill="#50382B"/>
<path fill-rule="evenodd" clip-rule="evenodd" d="M44.3757 65.8032C44.4726 66.2744 44.4707 66.6982 44.1245 67.0194C43.7807 67.3388 43.3457 67.2313 42.9214 67.16C42.9607 67.3838 43.0045 67.5738 43.0257 67.7663C43.1801 69.1969 42.5645 70.2588 41.2376 70.8657C40.7364 71.0944 40.2045 71.1794 39.6614 71.2232C39.3914 71.2444 39.1551 71.4507 39.1295 71.6725C39.1032 71.8975 39.2445 72.1288 39.527 72.1963C39.8601 72.2757 40.2076 72.2982 40.5495 72.3375C41.2832 72.4213 42.0251 72.4594 42.7501 72.5907C43.8464 72.7882 44.4582 73.745 44.2651 74.8463C44.0932 75.8263 43.5257 76.5394 42.7345 77.0863C41.4014 78.01 39.9389 78.28 38.3814 77.8088C37.4907 77.5388 36.8626 76.9532 36.6457 76.0057C36.537 75.5313 36.6526 75.1019 37.0095 74.78C37.4339 74.3988 37.8957 74.0588 38.3401 73.6988L38.4839 73.5544L38.3189 73.4388C37.8657 73.2238 37.5032 72.9294 37.3626 72.4182C37.3145 72.245 37.3645 72.1313 37.5114 72.0425C37.7614 71.8921 38.0099 71.739 38.257 71.5832C38.3732 71.5107 38.4882 71.4357 38.5964 71.3519C38.7439 71.2394 38.7307 71.1557 38.5545 71.0907C38.1445 70.9394 37.7801 70.72 37.4976 70.3825C37.0257 69.8194 36.892 69.1488 36.9307 68.4407C36.9914 67.3344 37.592 66.6057 38.5682 66.1369C39.7289 65.58 40.8932 65.545 42.0764 66.0525C42.5139 66.24 42.9751 66.28 43.4445 66.2475C43.7951 66.2225 44.1014 66.09 44.3757 65.8032ZM40.0989 73.7288C39.2276 73.7213 38.9545 73.8288 38.4432 74.3494C37.8707 74.9332 37.8739 75.7425 38.4451 76.3288C38.8789 76.7732 39.4201 76.9813 40.022 77.0438C40.7251 77.1163 41.4176 77.0869 42.0564 76.735C42.7376 76.3582 43.0764 75.6582 42.9232 74.9532C42.7964 74.3713 42.3676 74.105 41.8457 73.9519C41.252 73.7782 40.6382 73.745 40.0989 73.7288ZM38.3876 68.1613C38.4195 68.4032 38.4326 68.6482 38.4864 68.885C38.6257 69.4988 38.8926 70.0382 39.5032 70.3113C40.2201 70.6332 41.1357 70.495 41.4495 69.4888C41.664 68.8192 41.639 68.0958 41.3789 67.4425C41.2691 67.1437 41.0707 66.8855 40.8101 66.7025C40.1876 66.2682 39.0645 66.2107 38.607 67.1707C38.4582 67.4825 38.4001 67.8144 38.3876 68.1613Z" fill="#4F382B"/>
<path fill-rule="evenodd" clip-rule="evenodd" d="M29.5937 65.6487C29.6168 65.7556 29.6631 65.8769 29.6643 65.9987C29.6662 66.2306 29.6412 66.4625 29.6281 66.6944V66.8956L29.8243 66.7456C30.3618 66.3031 30.9393 65.9262 31.6118 65.7231C32.8256 65.3575 34.0381 66.0219 34.4337 67.2581C34.5837 67.7281 34.6431 68.2112 34.6487 68.7025C34.6612 69.7937 34.6687 70.885 34.68 71.9762C34.6837 72.3681 34.7287 72.4381 35.0993 72.5512C35.3102 72.6142 35.5254 72.662 35.7431 72.6944C35.8625 72.7131 35.9137 72.76 35.9075 72.8769L35.9087 72.9844C35.9043 73.4362 35.8731 73.4569 35.435 73.4556C34.3862 73.4537 33.3381 73.46 32.2893 73.4687C31.9768 73.4712 31.9762 73.4806 31.945 73.1719L31.9387 72.9944C31.9581 72.7281 31.9643 72.7306 32.2262 72.6919C32.4025 72.6656 32.5775 72.625 32.7493 72.58C32.9262 72.5344 33.0112 72.4037 33.035 72.2287C33.0468 72.14 33.0625 72.0512 33.0618 71.9625C33.0468 70.77 33.0662 69.5762 33.0012 68.3856C32.9487 67.4225 32.2137 66.8487 31.2468 66.9144C30.7808 66.9467 30.3328 67.1075 29.9525 67.3787C29.6943 67.5594 29.6425 67.82 29.6437 68.1006C29.6495 69.2156 29.6587 70.3308 29.6712 71.4462C29.6737 71.6906 29.6806 71.935 29.7037 72.1775C29.7281 72.4425 29.8212 72.5494 30.0812 72.6069C30.33 72.6619 30.5837 72.6937 30.8493 72.7381L30.8718 72.9431C30.8806 73.4212 30.8306 73.4569 30.3662 73.455C29.2818 73.4506 28.1975 73.4575 27.1137 73.4694C26.9431 73.4719 26.8706 73.4181 26.875 73.2519L26.8725 73.1806C26.8443 72.75 26.8568 72.7337 27.2643 72.6637L27.4568 72.625C27.8981 72.5256 28.0112 72.4081 28.0175 71.96C28.0381 70.5406 28.0456 69.1219 28.06 67.7025C28.0618 67.4987 27.985 67.3406 27.795 67.2562C27.5283 67.1394 27.2602 67.0261 26.9906 66.9162C26.8418 66.855 26.6718 66.8162 26.6662 66.6106C26.6625 66.4656 26.8175 66.3375 27.0293 66.2944C27.455 66.2081 27.8843 66.1362 28.305 66.0306C28.7237 65.9262 29.135 65.7862 29.5937 65.6487Z" fill="#4F372B"/>
<path fill-rule="evenodd" clip-rule="evenodd" d="M53.0406 69.3563C53.0206 70.6819 52.6762 71.7538 51.7387 72.5581C50.5512 73.5788 48.6987 73.9256 47.1843 73.1625C46.5381 72.8369 46.0631 72.3375 45.7537 71.6894C45.2793 70.6925 45.1606 69.6444 45.4081 68.5706C45.6531 67.5088 46.2962 66.7394 47.2587 66.2413C48.2487 65.7294 49.2912 65.5294 50.3906 65.7981C51.7812 66.1375 52.7806 67.2713 52.9793 68.715C53.015 68.9681 53.0287 69.2244 53.0406 69.3563ZM51.43 70.0744L51.3762 70.0681C51.3762 69.9431 51.3831 69.8181 51.375 69.6931C51.3293 68.9144 51.1543 68.1725 50.7031 67.5206C50.275 66.9031 49.6918 66.5388 48.9331 66.4856C48.0837 66.4256 47.37 66.9006 47.1193 67.7681C46.7431 69.0706 46.8706 70.34 47.5318 71.5331C47.82 72.0531 48.2468 72.4369 48.8187 72.6388C49.9393 73.0331 50.9331 72.5225 51.225 71.375C51.3325 70.9513 51.3637 70.5081 51.43 70.0744Z" fill="#4F382B"/>
<path fill-rule="evenodd" clip-rule="evenodd" d="M25.5119 69.4587C25.4887 70.41 25.2644 71.2893 24.6769 72.0537C24.0475 72.8725 23.1825 73.31 22.1987 73.4943C21.0356 73.7118 19.9431 73.5143 19.0087 72.7337C18.565 72.3625 18.2619 71.8868 18.0619 71.3456C17.7337 70.4581 17.6519 69.5487 17.8537 68.6218C18.0694 67.63 18.6294 66.8718 19.4975 66.3631C20.5012 65.7762 21.5844 65.5143 22.7412 65.7781C24.2287 66.1181 25.0875 67.0875 25.405 68.555C25.4687 68.8512 25.4775 69.1575 25.5119 69.4587ZM23.8831 70.0862L23.84 70.08V69.9012C23.8156 69.0287 23.645 68.1975 23.1244 67.4725C22.7387 66.9343 22.2225 66.5968 21.5606 66.5025C20.4819 66.3487 19.7769 66.9887 19.5431 67.8581C19.2381 68.9937 19.3337 70.1156 19.8056 71.1925C20.1 71.8637 20.565 72.3868 21.2794 72.6406C22.3931 73.0362 23.4019 72.5125 23.6837 71.3693C23.7875 70.9512 23.8187 70.515 23.8831 70.0862Z" fill="#4F372B"/>
<path fill-rule="evenodd" clip-rule="evenodd" d="M51.4763 20.965C52.2432 23.1818 52.7944 25.445 52.9763 27.79C53.2013 30.7 53.0988 33.59 52.485 36.4518L52.4063 36.6806C52.2138 36.6812 52.0175 36.6568 51.8294 36.6862C50.24 36.9362 48.6525 37.195 47.0644 37.4525C45.4225 37.7187 43.7794 37.9743 42.1407 38.2581C41.56 38.3581 40.8413 38.2387 40.6069 39.0412L40.4944 39.0793L40.5738 34.2806L40.4932 22.7018L41.2582 22.5706C42.5088 22.3662 43.7594 22.1581 45.0119 21.9587C46.5057 21.7218 48.0007 21.4906 49.4957 21.2593C50.1557 21.1581 50.8163 21.0637 51.4763 20.965Z" fill="#439934"/>
<path fill-rule="evenodd" clip-rule="evenodd" d="M38.9157 53.0693C38.1088 52.3756 37.2738 51.7124 36.5007 50.9824C32.3394 47.0574 29.2951 42.4368 27.7957 36.8662C27.3826 35.3337 27.1076 33.7756 27.0188 32.1918C26.9563 31.0831 26.8669 29.9649 26.9457 28.8618C27.1538 25.9287 27.5782 23.0237 28.4382 20.1981L28.4857 20.1324C28.5694 20.2437 28.6894 20.3424 28.7319 20.4681C29.5715 22.9406 30.4057 25.4154 31.2344 27.8924C33.8401 35.6743 36.4426 43.4581 39.0526 51.2387C39.1038 51.3906 39.2357 51.5149 39.3307 51.6518L38.9157 53.0693Z" fill="#45A538"/>
<path fill-rule="evenodd" clip-rule="evenodd" d="M51.4762 20.965C50.8155 21.0631 50.1549 21.1581 49.4955 21.2594C48.0005 21.4907 46.5055 21.7219 45.0118 21.9588C43.7599 22.1575 42.5093 22.3656 41.258 22.5706L40.493 22.7019L40.4868 22.2032C40.4611 21.7931 40.4187 21.3832 40.413 20.9731L40.3274 13.1269C40.3074 11.49 40.2774 9.85315 40.2443 8.2169C40.2274 7.19991 40.1981 6.18317 40.1562 5.1669C40.1312 4.62127 40.043 4.07815 40.008 3.53252C39.9874 3.21877 40.0149 2.90252 40.0218 2.58752C40.4118 3.34315 40.7937 4.1044 41.1943 4.8544C41.8274 6.04002 42.8368 6.91377 43.7462 7.8669C47.3374 11.6363 49.8868 16.0163 51.4762 20.965Z" fill="#46A037"/>
<path fill-rule="evenodd" clip-rule="evenodd" d="M40.4951 39.0794L40.6076 39.0413C40.842 38.2388 41.5607 38.3582 42.1414 38.2582C43.7801 37.9744 45.4232 37.7188 47.0651 37.4525C48.6532 37.1957 50.2407 36.9369 51.8301 36.6863C52.0182 36.6569 52.2145 36.6813 52.407 36.6807C52.1101 37.7407 51.8764 38.8238 51.4995 39.8544C51.0714 41.0232 50.5539 42.1644 50.0045 43.2832C49.1815 44.9515 48.1633 46.5162 46.9714 47.9444C46.0551 49.0457 45.0339 50.065 44.0107 51.0707C43.4445 51.6263 42.7782 52.0794 42.157 52.5794L41.9957 52.4694L41.4164 51.9744L40.817 50.6594C40.4078 49.1259 40.1843 47.5487 40.1514 45.9619L40.1626 45.6944L40.2445 44.5357C40.2714 44.14 40.3076 43.745 40.3245 43.3494C40.3845 41.9269 40.4382 40.5032 40.4951 39.0794Z" fill="#409433"/>
<path fill-rule="evenodd" clip-rule="evenodd" d="M40.495 39.0794C40.4387 40.5032 40.385 41.9275 40.3243 43.3513C40.3075 43.7475 40.2718 44.1425 40.2443 44.5375L39.8793 44.6757C39.0681 42.2875 38.2562 39.9244 37.4625 37.5557C36.1493 33.6363 34.8525 29.7113 33.5412 25.7907C32.4824 22.6265 31.4161 19.4648 30.3425 16.3057C30.2918 16.1582 30.1481 16.0419 30.0481 15.9113L32.3856 11.6132C32.4662 11.7525 32.5718 11.8832 32.6225 12.0332C33.7037 15.2332 34.7831 18.4338 35.8531 21.6375C37.2456 25.8063 38.6287 29.9769 40.02 34.1463C40.0756 34.3125 40.1668 34.4663 40.2543 34.6532L40.5743 34.2807L40.495 39.0794Z" fill="#4FAA41"/>
<path fill-rule="evenodd" clip-rule="evenodd" d="M30.0475 15.9113C30.1481 16.0419 30.2919 16.1581 30.3419 16.3056C31.4156 19.4648 32.4819 22.6264 33.5406 25.7906C34.8519 29.7113 36.1487 33.6363 37.4619 37.5556C38.2556 39.9244 39.0675 42.2869 39.8787 44.6756L40.2437 44.5375L40.1619 45.6963L40.0875 45.9631C39.9606 47.2313 39.8537 48.5019 39.6987 49.7675C39.6212 50.4019 39.4556 51.0244 39.33 51.6519C39.2356 51.515 39.1031 51.3906 39.0519 51.2388C36.4412 43.4581 33.8394 35.6744 31.2337 27.8925C30.4047 25.416 29.5706 22.9412 28.7312 20.4681C28.6887 20.3425 28.5687 20.2438 28.485 20.1325L30.0475 15.9113Z" fill="#4AA73C"/>
<path fill-rule="evenodd" clip-rule="evenodd" d="M40.5738 34.2807L40.2538 34.6532C40.1663 34.4663 40.075 34.3125 40.0194 34.1463C38.6281 29.9769 37.245 25.8063 35.8525 21.6375C34.7813 18.4342 33.7044 15.2327 32.6219 12.0332C32.5713 11.8832 32.4656 11.7525 32.385 11.6132L35.2756 7.81067C35.3669 7.93192 35.4969 8.04004 35.5438 8.17692C36.3458 10.5269 37.1421 12.8788 37.9325 15.2325C38.6713 17.4313 39.3988 19.6325 40.1463 21.8275C40.1963 21.9744 40.3706 22.0782 40.4869 22.2032L40.4931 22.7019L40.5738 34.2807Z" fill="#57AE47"/>
<path fill-rule="evenodd" clip-rule="evenodd" d="M40.4869 22.2031C40.37 22.0788 40.1963 21.975 40.1463 21.8275C39.3994 19.6325 38.6713 17.4313 37.9325 15.2325C37.1419 12.8787 36.3456 10.5269 35.5438 8.17689C35.4969 8.04001 35.3669 7.93188 35.2756 7.81063C36.2156 6.89001 37.1263 5.93626 38.1044 5.05814C38.9738 4.27814 39.6725 3.44188 39.705 2.20876L39.7738 1.96313L40.0213 2.58688C40.015 2.90188 39.9869 3.21813 40.0075 3.53188C40.0431 4.07751 40.1313 4.62063 40.1556 5.16626C40.2013 6.18188 40.2231 7.19938 40.2438 8.21626C40.2769 9.85251 40.3069 11.4894 40.3269 13.1263L40.4125 20.9725C40.4188 21.3831 40.4619 21.7931 40.4869 22.2031Z" fill="#60B24F"/>
<path fill-rule="evenodd" clip-rule="evenodd" d="M39.3307 51.6513C39.4563 51.0238 39.6219 50.4013 39.6994 49.7669C39.8544 48.5019 39.9613 47.2306 40.0882 45.9625L40.12 45.9575L40.1513 45.9631C40.1842 47.55 40.4077 49.1271 40.8169 50.6606C40.7325 50.7719 40.6144 50.87 40.5694 50.995C40.2225 51.9738 39.895 52.9606 39.5463 53.9388C39.4988 54.0725 39.365 54.1769 39.2719 54.2938L38.915 53.0688L39.3307 51.6513Z" fill="#A9AA88"/>
<path fill-rule="evenodd" clip-rule="evenodd" d="M39.272 54.2944C39.3651 54.1769 39.4988 54.0731 39.5463 53.9394C39.8951 52.9613 40.2226 51.9744 40.5695 50.9956C40.6139 50.8706 40.7326 50.7725 40.817 50.6613L41.4163 51.9763C41.2982 52.1438 41.1345 52.2956 41.0688 52.4825L39.9213 55.8525C39.8738 55.9881 39.7132 56.0831 39.6045 56.1975L39.272 54.2944Z" fill="#B6B598"/>
<path fill-rule="evenodd" clip-rule="evenodd" d="M39.6045 56.1968C39.7126 56.0825 39.8739 55.9875 39.9214 55.8518L41.0689 52.4818C41.1339 52.295 41.2982 52.1431 41.4164 51.9756L41.9964 52.47C41.7164 52.7468 41.5607 53.0668 41.6545 53.4712L41.4782 54.0481C41.3982 54.1468 41.282 54.2331 41.2426 54.3462C40.842 55.4937 40.4601 56.6475 40.0564 57.7943C40.0051 57.9393 39.8632 58.0537 39.7639 58.1825L39.6045 56.1968Z" fill="#C2C1A7"/>
<path fill-rule="evenodd" clip-rule="evenodd" d="M39.7632 58.1819C39.8632 58.0531 40.005 57.9387 40.0557 57.7937C40.4594 56.6469 40.8419 55.4931 41.2419 54.3456C41.2813 54.2325 41.3975 54.1469 41.4775 54.0475L41.2344 56.695C41.1694 56.77 41.0757 56.8356 41.0444 56.9225L40.2357 59.24C40.1788 59.3981 40.0701 59.5394 39.9851 59.6875C39.9094 59.5887 39.7744 59.4931 39.7682 59.3906C39.7444 58.9894 39.7613 58.585 39.7632 58.1819Z" fill="#CECDB7"/>
<path fill-rule="evenodd" clip-rule="evenodd" d="M39.9856 59.6882C40.0706 59.5401 40.1793 59.3988 40.2362 59.2407L41.045 56.9232C41.0762 56.8357 41.1706 56.7707 41.235 56.6957L41.2412 58.4332L40.6593 59.9251L39.9856 59.6882Z" fill="#DBDAC7"/>
<path fill-rule="evenodd" clip-rule="evenodd" d="M40.6594 59.925L41.2413 58.4331L41.3613 60.1981L40.6594 59.925Z" fill="#EBE9DC"/>
</svg>
