<svg width="80" height="80" viewBox="0 0 80 80" fill="none" xmlns="http://www.w3.org/2000/svg">
<g clip-path="url(#clip0_72_91)">
<path d="M39.9999 79.8533C38.8599 79.8533 37.7999 79.5567 36.8099 79.0433L26.7133 73.25C25.1966 72.4433 25.9566 72.15 26.4133 72.0033C28.4599 71.3433 28.8399 71.1967 30.9666 70.02C31.1933 69.8733 31.4999 69.9467 31.7266 70.0933L39.4699 74.57C39.7699 74.7167 40.1533 74.7167 40.3799 74.57L70.6699 57.6233C70.9699 57.4767 71.1233 57.1833 71.1233 56.8167V22.9967C71.1233 22.63 70.9733 22.3367 70.6699 22.19L40.3799 5.32001C40.0766 5.17335 39.6966 5.17335 39.4699 5.32001L9.17992 22.19C8.87659 22.3367 8.72325 22.7033 8.72325 22.9967V56.8167C8.72325 57.11 8.87659 57.4767 9.17992 57.6233L17.4533 62.2467C21.9333 64.4467 24.7399 61.88 24.7399 59.3133V25.9333C24.7399 25.4933 25.1199 25.0533 25.6533 25.0533H29.5233C29.9799 25.0533 30.4333 25.42 30.4333 25.9333V59.31C30.4333 65.1067 27.1699 68.48 21.4766 68.48C19.7299 68.48 18.3633 68.48 14.4933 66.6467L6.52325 62.2467C5.56355 61.7178 4.76212 60.9427 4.20144 60.0012C3.64076 59.0597 3.34109 57.9858 3.33325 56.89V23.07C3.33325 20.87 4.54659 18.8167 6.52325 17.7167L36.8133 0.766679C37.7998 0.262282 38.8919 -0.000732422 39.9999 -0.000732422C41.1079 -0.000732422 42.2001 0.262282 43.1866 0.766679L73.4799 17.7133C75.4533 18.8133 76.6666 20.8667 76.6666 23.0667V56.8867C76.6666 59.0867 75.4533 61.14 73.4799 62.2433L43.1899 79.1867C42.1831 79.6231 41.0973 79.8478 39.9999 79.8467M49.3366 56.59C36.0533 56.59 33.3199 50.7233 33.3199 45.7333C33.3199 45.2933 33.6999 44.8533 34.2299 44.8533H38.1766C38.6333 44.8533 39.0099 45.1467 39.0099 45.5867C39.6199 49.4733 41.3666 51.38 49.4133 51.38C55.7899 51.38 58.5233 49.9867 58.5233 46.6867C58.5233 44.78 57.7633 43.3867 47.8199 42.4333C39.5433 41.6233 34.3833 39.8667 34.3833 33.4833C34.3833 27.54 39.5433 24.0167 48.1999 24.0167C57.9166 24.0167 62.6999 27.2467 63.3066 34.29C63.2992 34.5283 63.2189 34.7587 63.0766 34.95C62.9266 35.0967 62.6999 35.2433 62.4699 35.2433H58.5233C58.3315 35.2387 58.1465 35.1718 57.9962 35.0527C57.8459 34.9337 57.7383 34.7689 57.6899 34.5833C56.7766 30.55 54.4233 29.2267 48.1999 29.2267C41.2133 29.2267 40.3799 31.5733 40.3799 33.3367C40.3799 35.4633 41.3666 36.1233 50.7799 37.2967C60.1166 38.47 64.5199 40.1567 64.5199 46.4633C64.4433 52.9233 58.9799 56.59 49.3366 56.59Z" fill="black"/>
</g>
<defs>
<clipPath id="clip0_72_91">
<rect width="80" height="80" fill="white"/>
</clipPath>
</defs>
</svg>
