<svg width="91" height="91" viewBox="0 0 91 91" fill="none" xmlns="http://www.w3.org/2000/svg">
<path d="M85.3125 45.5C85.3215 46.6664 84.9669 47.8066 84.298 48.7622C83.6291 49.7178 82.6791 50.4413 81.58 50.832L59.0291 59.0327L50.832 81.5801C50.428 82.6685 49.7005 83.6073 48.7474 84.2702C47.7942 84.9331 46.661 85.2884 45.5 85.2884C44.3389 85.2884 43.2057 84.9331 42.2526 84.2702C41.2994 83.6073 40.5719 82.6685 40.1679 81.5801L31.9708 59.0291L9.41988 50.832C8.33142 50.428 7.39269 49.7005 6.72978 48.7474C6.06687 47.7942 5.71155 46.661 5.71155 45.5C5.71155 44.339 6.06687 43.2058 6.72978 42.2526C7.39269 41.2994 8.33142 40.572 9.41988 40.168L31.9708 31.9708L40.1679 9.41991C40.5719 8.33146 41.2994 7.39272 42.2526 6.72981C43.2057 6.0669 44.3389 5.71158 45.5 5.71158C46.661 5.71158 47.7942 6.0669 48.7474 6.72981C49.7005 7.39272 50.428 8.33146 50.832 9.41991L59.0327 31.9708L81.58 40.168C82.6791 40.5587 83.6291 41.2822 84.298 42.2377C84.9669 43.1933 85.3215 44.3336 85.3125 45.5Z" fill="white"/>
</svg>
