<svg width="80" height="80" viewBox="0 0 80 80" fill="none" xmlns="http://www.w3.org/2000/svg">
<path d="M40 54C60.7 54 77.5 47.75 77.5 40C77.5 32.25 60.7 26 40 26C19.3 26 2.5 32.25 2.5 40C2.5 47.75 19.3 54 40 54Z" stroke="#91D7E3" stroke-linecap="round" stroke-linejoin="round"/>
<path d="M27.6 47C37.95 64.5 51.9 75.6 58.75 71.75C65.6 67.85 62.75 50.55 52.4 33C42.05 15.5 28.1 4.40001 21.25 8.25001C14.4 12.15 17.25 29.45 27.6 47Z" stroke="#91D7E3" stroke-linecap="round" stroke-linejoin="round"/>
<path d="M27.6 33C17.25 50.5 14.4 67.85 21.25 71.75C28.1 75.6 42.05 64.5 52.4 47C62.75 29.5 65.6 12.15 58.75 8.25001C51.9 4.40001 37.95 15.5 27.6 33Z" stroke="#91D7E3" stroke-linecap="round" stroke-linejoin="round"/>
<path d="M42.5 40C42.5 40.663 42.2366 41.2989 41.7678 41.7678C41.2989 42.2366 40.663 42.5 40 42.5C39.337 42.5 38.7011 42.2366 38.2322 41.7678C37.7634 41.2989 37.5 40.663 37.5 40C37.5 39.337 37.7634 38.7011 38.2322 38.2322C38.7011 37.7634 39.337 37.5 40 37.5C40.663 37.5 41.2989 37.7634 41.7678 38.2322C42.2366 38.7011 42.5 39.337 42.5 40Z" stroke="#91D7E3" stroke-linecap="round" stroke-linejoin="round"/>
</svg>
