<svg width="131" height="89" viewBox="0 0 131 89" fill="none" xmlns="http://www.w3.org/2000/svg">
<g clip-path="url(#clip0_72_93)">
<path d="M38.9699 58.729L42.9511 71.6039C43.8456 74.5272 44.2186 76.5678 44.0692 77.7309C46.2466 71.9186 47.768 65.5847 48.6335 58.729H53.4206C51.362 69.8901 48.6476 78.0005 45.2774 83.0599C42.6518 86.9589 39.7754 88.9082 36.6432 88.9082C35.808 88.9082 34.7785 88.6567 33.5567 88.1574V85.467C34.1536 85.5542 34.8539 85.6009 35.6594 85.6009C37.1203 85.6006 38.2987 85.1975 39.1943 84.3916C40.2671 83.4101 40.8042 82.3069 40.8042 81.0841C40.8042 80.2492 40.3854 78.5357 39.5515 75.9438L34.0045 58.729H38.9699ZM8.50042 50.8157L15.7924 72.9907H15.8374L23.1742 50.8157H29.1685C30.481 61.8129 31.2563 71.875 31.4942 80.9956H26.4405C26.2624 72.47 25.7705 64.4523 24.9647 56.9426H24.9207L17.225 80.9956H13.3763L5.72716 56.9426H5.68213C5.11497 64.1548 4.75711 72.1724 4.60854 80.9956H0C0.29782 70.2646 1.04314 60.2056 2.23596 50.8157H8.50042Z" fill="#00758F"/>
<path d="M90.1899 50.3679C98.0338 50.3679 101.956 55.3626 101.956 65.3472C101.956 70.7729 100.776 74.8712 98.4197 77.6399C97.9949 78.1459 97.5254 78.583 97.0311 78.9879L102.582 81.7235L102.577 81.7232L100.606 85.1154L93.3769 80.9115C92.1785 81.2651 90.8607 81.4419 89.4236 81.4419C85.5722 81.4419 82.6953 80.3232 80.7933 78.0885C78.7054 75.6164 77.662 71.7246 77.662 66.4198C77.662 61.0247 78.8395 56.9419 81.197 54.1697C83.3442 51.6338 86.3423 50.3679 90.1899 50.3679ZM66.1699 50.4115C68.9733 50.4115 71.5224 51.1592 73.8185 52.6493L72.6523 55.2395C70.6876 54.4071 68.7505 53.9891 66.8402 53.9891C65.2902 53.9891 64.0959 54.3609 63.2633 55.1092C62.4261 55.8507 61.9083 56.805 61.9083 57.9684C61.9083 59.756 63.186 61.3063 65.5453 62.616C66.3182 63.0371 67.0885 63.4631 67.856 63.8939L68.032 63.9926L68.1203 64.0421L68.2966 64.1407L68.3846 64.1902L68.5606 64.2892C70.3465 65.2926 72.027 66.2505 72.027 66.2505C74.386 67.9195 75.562 69.699 75.562 72.6299C75.562 75.1895 74.6209 77.2906 72.7449 78.9346C70.8677 80.5713 68.3457 81.392 65.1874 81.392C62.2335 81.392 59.3707 80.4474 56.5977 78.574L57.8949 75.9816C60.2813 77.1738 62.4407 77.7692 64.3799 77.7692C66.1985 77.7692 67.6221 77.3645 68.652 76.5653C69.6797 75.7602 70.2956 74.6374 70.2956 73.2136C70.2956 71.4217 69.045 69.8898 66.7507 68.6048C66.0325 68.2093 65.3166 67.8101 64.6027 67.407L64.427 67.3078C64.1041 67.1259 63.7789 66.9418 63.4603 66.7615L63.2876 66.6636C61.7384 65.7853 60.399 65.018 60.399 65.018C58.1054 63.3459 56.9554 61.5518 56.9554 58.5957C56.9554 56.1509 57.813 54.1748 59.5257 52.6715C61.2427 51.1648 63.4574 50.4115 66.1699 50.4115ZM111.174 50.8155V77.2829H120.702V80.9954H106.342V50.8157L111.174 50.8155ZM125.996 77.2944V77.9217H124.949V80.9921H124.148V77.9217H123.06V77.2944H125.996ZM127.93 77.2944L128.936 79.8149L129.86 77.2944H130.995V80.9921H130.241V78.178L129.189 80.9921H128.645L127.591 78.178H127.551V80.9921H126.837V77.2944H127.93ZM89.6967 54.0794C85.0743 54.0794 82.7618 57.8817 82.7618 65.4811C82.7618 69.8342 83.3746 72.9908 84.5979 74.9582C85.7308 76.779 87.5052 77.6876 89.9213 77.6876C94.5436 77.6876 96.8559 73.8558 96.8559 66.1956C96.8559 61.9035 96.2431 58.774 95.0213 56.8055C93.8871 54.9888 92.1135 54.0794 89.6969 54.0794" fill="#F29111"/>
<path d="M77.5811 1.87004C79.1145 -1.8853 84.476 0.958616 86.5567 2.27041C87.0666 2.59861 87.6515 3.292 88.2362 3.54829C89.1483 3.58399 90.0597 3.65514 90.9733 3.69314C92.6871 4.09453 94.2923 4.42248 95.6428 5.18905C101.918 8.87273 106.004 12.6265 109.764 18.827C110.567 20.1403 110.968 21.5615 111.625 22.9827C112.536 25.1011 113.559 27.3248 114.616 29.3279C115.09 30.2776 115.456 31.3336 116.113 32.1356C116.37 32.5024 117.099 32.6105 117.534 32.8295C118.739 33.451 120.198 33.9228 121.331 34.6521C123.447 35.967 125.493 37.5338 127.352 39.1378C128.045 39.757 128.518 40.6335 129.178 41.2884V41.6189C128.592 41.7981 128.008 41.9818 127.423 42.1289C126.146 42.4558 125.015 42.3819 123.776 42.7091C123.011 42.9304 122.06 43.2224 121.257 43.2966L121.331 43.3711C121.804 44.7163 124.359 45.8103 125.528 46.6149C126.947 47.6359 128.263 48.8743 129.322 50.2965C129.687 50.6594 130.053 50.9896 130.417 51.3515C130.671 51.7182 130.743 52.1925 131 52.5195V52.6301C130.715 52.5299 130.51 52.3386 130.316 52.1387L130.2 52.0181C130.084 51.8982 129.967 51.7804 129.834 51.6833C129.028 51.135 128.229 50.4791 127.423 49.9693C126.038 49.0936 124.432 48.5854 123.011 47.7063C122.207 47.196 121.44 46.6149 120.674 46.0309C119.979 45.5191 119.214 44.5362 118.778 43.8069C118.521 43.404 118.485 42.9304 118.192 42.6389C118.244 42.1521 118.692 42.0075 119.143 41.8887L119.247 41.8614C119.403 41.8211 119.555 41.7808 119.688 41.7275C121.585 40.9247 123.847 40.6335 126.767 40.7064C126.657 39.9756 124.832 39.0649 124.25 38.6273C123.081 37.7873 121.843 36.9108 120.602 36.1463C119.945 35.7459 118.812 35.4536 118.084 35.1265C117.099 34.7251 114.909 34.3239 114.363 33.5594C113.435 32.3542 112.769 30.9167 112.122 29.4646L111.946 29.0683L111.77 28.6723C111.005 26.9237 110.055 25.1006 109.289 23.3101C108.888 22.4367 108.704 21.6701 108.266 20.8324C105.603 15.6918 101.662 11.3879 96.8837 8.36117C95.3135 7.37631 93.5626 6.46489 91.6299 5.84546C90.5345 5.51572 89.2199 5.69806 88.053 5.44508H87.2849C86.6294 5.26096 86.0821 4.56834 85.5706 4.20316C84.441 3.43863 83.3096 2.92529 81.9586 2.37981C81.4853 2.16101 80.1336 1.65149 79.6618 2.05263C79.3696 2.12582 79.2215 2.23573 79.1496 2.52797C78.8589 2.96405 79.1145 3.62097 79.2954 4.02312C79.8435 5.18854 80.609 5.88116 81.3039 6.86602C81.9221 7.73945 82.6899 8.72431 83.1282 9.67399C84.0738 11.7154 84.5142 13.9771 85.3905 16.0182C85.7154 16.7858 86.2295 17.6592 86.7025 18.3516C87.1035 18.9012 87.8324 19.2985 88.053 19.9942C88.4925 20.7235 87.3949 23.1301 87.1408 23.8944C86.1903 26.8849 86.3745 31.0419 87.4691 33.6341L87.5274 33.7708L87.5858 33.9093C87.9854 34.8587 88.4132 35.881 89.4758 36.1465C89.549 36.0741 89.4758 36.1121 89.6209 36.0741C89.878 34.0676 89.9504 32.1354 90.6443 30.5655C91.0452 29.584 91.8458 28.8901 92.3946 28.0888C92.7605 28.3071 92.7605 28.9653 92.9785 29.4009C93.4534 30.5306 93.9633 31.7692 94.5487 32.9022C95.7502 35.2356 97.1022 37.4978 98.634 39.539C99.147 40.2681 99.8749 41.0706 100.531 41.7272C100.824 41.9815 101.151 42.1284 101.371 42.4556H101.443V42.5657C100.348 42.1636 99.6544 41.0349 98.7814 40.3759C97.1378 39.1373 95.1694 37.2772 94.0365 35.4924C93.5626 34.4678 93.0504 33.4857 92.5397 32.4661V32.3924C92.3215 32.6837 92.3946 32.9729 92.2854 33.4135C91.8115 35.2356 92.1764 37.3142 90.5345 37.9696C88.6734 38.7372 87.2851 36.731 86.7025 35.8193C84.8409 32.7933 84.331 27.6885 85.6438 23.5677C85.9355 22.6555 85.9751 21.5615 86.4843 20.8332C86.3743 20.1747 85.8651 19.9947 85.5706 19.5912C85.0599 18.9017 84.6227 18.0984 84.2227 17.3326C83.4547 15.8367 82.9081 14.0493 82.325 12.445C82.0687 11.7898 81.9952 11.1322 81.7396 10.512C81.3036 9.56535 80.5 8.61568 79.88 7.77821C79.0406 6.57454 76.5956 4.24167 77.5811 1.87004ZM89.5482 9.01426C89.6457 9.11168 89.7634 9.19685 89.8852 9.28075L90.032 9.38123C90.2278 9.51639 90.4174 9.65868 90.5335 9.8525C90.7177 10.109 90.752 10.3623 90.9726 10.6193C90.9726 11.4958 90.7177 12.0785 90.2032 12.4417C90.2032 12.4417 90.1681 12.4799 90.1321 12.5156C89.8404 11.9314 89.5848 11.3502 89.2911 10.7665C88.9293 10.2569 88.4178 9.85275 88.1231 9.27055H88.0522V9.19736C88.4925 9.08898 88.9293 9.01426 89.5482 9.01426Z" fill="#00758F"/>
</g>
<defs>
<clipPath id="clip0_72_93">
<rect width="131" height="89" fill="white"/>
</clipPath>
</defs>
</svg>
