<svg width="80" height="87" viewBox="0 0 80 87" fill="none" xmlns="http://www.w3.org/2000/svg">
<g clip-path="url(#clip0_72_34)">
<path d="M41.8075 15.2552C41.8075 6.84307 34.95 0 26.5197 0C17.6353 0 12.3234 6.64692 12.3234 13.0759H21.0597C21.0597 11.2673 22.7544 8.71715 26.5197 8.71715C30.1322 8.71715 33.0716 11.6505 33.0716 15.2552C33.0716 18.86 30.4347 21.793 23.7856 21.793H0V30.5102H23.7856C35.0078 30.5102 41.8075 23.6674 41.8075 15.2552ZM41.8075 15.2552C41.8075 6.84307 34.95 0 26.5197 0C17.6353 0 12.3234 6.64692 12.3234 13.0759H21.0597C21.0597 11.2673 22.7544 8.71715 26.5197 8.71715C30.1322 8.71715 33.0716 11.6505 33.0716 15.2552C33.0716 18.86 30.4347 21.793 23.7856 21.793H0V30.5102H23.7856C35.0078 30.5102 41.8075 23.6674 41.8075 15.2552Z" fill="url(#paint0_linear_72_34)"/>
<path d="M61.1885 71.5143C61.1885 79.9268 54.3307 86.7695 45.9003 86.7695C37.016 86.7695 31.7044 80.1229 31.7044 73.6936H40.4403C40.4403 75.5022 42.135 78.0527 45.9003 78.0527C49.5128 78.0527 52.4525 75.119 52.4525 71.5143C52.4525 67.9095 49.1307 64.9765 43.1663 64.9765H16.7722V56.259H43.1663C54.3888 56.259 61.1885 63.1021 61.1885 71.5143ZM61.1885 71.5143C61.1885 79.9268 54.3307 86.7695 45.9003 86.7695C37.016 86.7695 31.7044 80.1229 31.7044 73.6936H40.4403C40.4403 75.5022 42.135 78.0527 45.9003 78.0527C49.5128 78.0527 52.4525 75.119 52.4525 71.5143C52.4525 67.9095 49.1307 64.9765 43.1663 64.9765H16.7722V56.259H43.1663C54.3888 56.259 61.1885 63.1021 61.1885 71.5143Z" fill="url(#paint1_linear_72_34)"/>
<path d="M63.4781 13.4491C53.8425 13.4491 47.0453 20.7615 47.0453 30.3764H54.7828C54.7828 25.597 58.2609 22.1263 63.4781 22.1263C68.6956 22.1263 71.3044 25.597 71.3044 30.3764C71.3044 35.1558 67.9163 39.0935 58.6956 39.0935H0V47.811H60C73.6547 47.811 80 39.0533 80 30.3764C80 20.7612 73.4781 13.4491 63.4781 13.4491Z" fill="url(#paint2_linear_72_34)"/>
<path d="M11.4522 56.259H0V65.0495H11.4522V56.259Z" fill="url(#paint3_linear_72_34)"/>
</g>
<defs>
<linearGradient id="paint0_linear_72_34" x1="6.95635" y1="11.0404" x2="40.5533" y2="64.1564" gradientUnits="userSpaceOnUse">
<stop offset="0.07822" stop-color="#54C8F1"/>
<stop offset="0.57292" stop-color="#41A2EF"/>
<stop offset="1" stop-color="#3386EE"/>
</linearGradient>
<linearGradient id="paint1_linear_72_34" x1="6.95667" y1="41.1194" x2="38.3664" y2="90.7774" gradientUnits="userSpaceOnUse">
<stop offset="0.07822" stop-color="#54C8F1"/>
<stop offset="0.57292" stop-color="#41A2EF"/>
<stop offset="1" stop-color="#3386EE"/>
</linearGradient>
<linearGradient id="paint2_linear_72_34" x1="6.9568" y1="26.3214" x2="28.0147" y2="59.6131" gradientUnits="userSpaceOnUse">
<stop offset="0.07822" stop-color="#54C8F1"/>
<stop offset="0.57292" stop-color="#41A2EF"/>
<stop offset="1" stop-color="#3386EE"/>
</linearGradient>
<linearGradient id="paint3_linear_72_34" x1="6.95652" y1="29.1286" x2="42.5919" y2="85.4674" gradientUnits="userSpaceOnUse">
<stop offset="0.07822" stop-color="#54C8F1"/>
<stop offset="0.57292" stop-color="#41A2EF"/>
<stop offset="1" stop-color="#3386EE"/>
</linearGradient>
<clipPath id="clip0_72_34">
<rect width="80" height="87" fill="white"/>
</clipPath>
</defs>
</svg>
